<svg id="katman_1" data-name="katman 1" xmlns="http://www.w3.org/2000/svg" viewBox="0 0 1280 390"><defs><style>.cls-1{fill:#6295cf;}.cls-2{fill:#fff;}</style></defs><rect class="cls-1" width="1280" height="390" rx="30.02"/><path class="cls-2" d="M120,269.16a50,50,0,0,1-19.5-20.88Q93.59,234.77,93.59,217V173.14q0-17.8,6.93-31.31A50.27,50.27,0,0,1,120,120.9q12.57-7.43,29.17-7.42a54.81,54.81,0,0,1,25.26,5.88A53.44,53.44,0,0,1,193.74,136a62.49,62.49,0,0,1,10.49,24.94h-23a35.76,35.76,0,0,0-7-13.35,34.38,34.38,0,0,0-11.48-9.06,30.9,30.9,0,0,0-42.19,14.78,45.51,45.51,0,0,0-4.06,19.83V217a45.65,45.65,0,0,0,4.06,19.78A31,31,0,0,0,132.05,250a31.31,31.31,0,0,0,17.14,4.67,32.64,32.64,0,0,0,13.67-3,32.24,32.24,0,0,0,11.43-8.79,35,35,0,0,0,7-13.84h23A62,62,0,0,1,193.68,254a53.84,53.84,0,0,1-19.34,16.64,54.56,54.56,0,0,1-25.15,5.88Q132.6,276.52,120,269.16Z"/><path class="cls-2" d="M252.24,270.7a38.47,38.47,0,0,1-16.1-17q-5.55-11.15-5.55-26.86V208.29q0-15.48,5.55-26.53A38.27,38.27,0,0,1,252.24,165q10.54-5.76,25.38-5.77T303,165a38.22,38.22,0,0,1,16.1,16.81q5.55,11,5.55,26.53v18.9q0,15.6-5.55,26.64A38.57,38.57,0,0,1,303,270.7q-10.55,5.82-25.37,5.82T252.24,270.7Zm43.56-22.86q6.42-7.35,6.43-20.65v-18.9q0-13.29-6.43-20.54t-18.18-7.25q-11.76,0-18.19,7.25T253,208.29v18.9q0,13.29,6.42,20.65t18.19,7.37Q289.37,255.21,295.8,247.84Z"/><path class="cls-2" d="M356.5,160.83h22.41v114H356.5Zm69.21,44.94q0-12.09-6.26-18.68t-17.58-6.59q-11,0-17,5.82t-6,16.37l-2.31-22a40.63,40.63,0,0,1,13.79-15.93,33.54,33.54,0,0,1,18.84-5.61q18.57,0,28.73,12.14t10.16,34.34v69.21H425.71Z"/><path class="cls-2" d="M473.39,160.83h51.42v20.22H473.39Zm18.18,106.95q-6.42-7.63-6.42-22.57V127.65h22.41V245.43a10.72,10.72,0,0,0,1.65,6.42,5.6,5.6,0,0,0,4.83,2.26h10.77v21.31h-13Q498,275.42,491.57,267.78Z"/><path class="cls-2" d="M560.51,267.78q-10.44-8.73-10.43-26.53,0-16.92,9.56-25.38t28.89-8.46h32.41l1.54,18H588.64q-8.79,0-13.13,3.9t-4.34,11.92q0,8.69,5.77,12.86t17.52,4.17q12.85,0,19.17-2.75T620,247l2.31,16a26.36,26.36,0,0,1-7.31,7.59A32,32,0,0,1,604.9,275,51.7,51.7,0,0,1,592,276.52Q571,276.52,560.51,267.78ZM620,202.58q0-11.21-6-17.41T597,179a43.7,43.7,0,0,0-13.35,2.09,39.53,39.53,0,0,0-11.59,5.82l-16.37-11.21a42.81,42.81,0,0,1,17.08-12.14,61.76,61.76,0,0,1,23.57-4.34q14.17,0,24.28,5A34.75,34.75,0,0,1,636,178.69q5.28,9.5,5.27,22.9v73.28H620Z"/><path class="cls-2" d="M694.71,270.7a39.46,39.46,0,0,1-16.86-16.92Q672,242.68,672,227V208.18q0-15.48,5.82-26.47A39.2,39.2,0,0,1,694.71,165q11-5.76,26.64-5.77a63.39,63.39,0,0,1,16.76,2.15,50.29,50.29,0,0,1,14.12,6.2,38.48,38.48,0,0,1,10.43,9.89l-16.15,14.5a33.55,33.55,0,0,0-11.31-8.46,32.28,32.28,0,0,0-13.52-3q-13,0-20.1,7.25t-7.14,20.43V227q0,13.51,7.08,20.87t20.16,7.37A30.61,30.61,0,0,0,735.31,252a33.11,33.11,0,0,0,11.2-9l16.15,15.6a39.86,39.86,0,0,1-10.54,9.72,49.55,49.55,0,0,1-14.12,6.1,64.7,64.7,0,0,1-16.65,2.09Q705.75,276.52,694.71,270.7Z"/><path class="cls-2" d="M778.59,160.83H830v20.22H778.59Zm18.19,106.95q-6.43-7.63-6.43-22.57V127.65h22.41V245.43a10.72,10.72,0,0,0,1.65,6.42,5.6,5.6,0,0,0,4.83,2.26H830v21.31H817Q803.21,275.42,796.78,267.78Z"/><path class="cls-2" d="M1038.2,115.13h21V274.87h-21.86V155.23l1.1,7-39.33,90.42h-15.6l-39.33-88.22,1.1-9.23V274.87H923.39V115.13h21L991.29,220.6Z"/><path class="cls-2" d="M1116.2,270.59a39.67,39.67,0,0,1-17.08-17.42q-5.88-11.47-5.88-27.74V212.58q0-16.92,5.66-28.9a40.47,40.47,0,0,1,16.42-18.23q10.77-6.27,25.93-6.27,14.28,0,24.39,7.15T1181.08,187q5.33,13.52,5.33,32.41v7.47H1109.5v-18h55.59q-1-14-7.19-21.69t-16.65-7.75q-12.75,0-19.72,8.35t-7,23.62v14.5q0,14.17,7.48,21.75t21.2,7.59a35.39,35.39,0,0,0,13.51-2.75,39.11,39.11,0,0,0,12-7.69l14.72,14.72a62.16,62.16,0,0,1-19,12.58,54.08,54.08,0,0,1-21.2,4.45Q1127.41,276.52,1116.2,270.59Z"/></svg>
