<svg id="katman_1" data-name="katman 1" xmlns="http://www.w3.org/2000/svg" viewBox="0 0 1280 390"><defs><style>.cls-1{fill:#fff;}.cls-2{fill:#22272e;}</style></defs><rect class="cls-1" width="1280" height="390" rx="30.02"/><path class="cls-2" d="M101.53,271.79a51.72,51.72,0,0,1-20.2-21.61q-7.15-14-7.16-32.43V172.36q0-18.44,7.16-32.42a52.14,52.14,0,0,1,20.2-21.68q13-7.68,30.2-7.68a56.77,56.77,0,0,1,26.17,6.09,55.13,55.13,0,0,1,20,17.24,64.52,64.52,0,0,1,10.86,25.82H165a37.16,37.16,0,0,0-7.23-13.82,35.43,35.43,0,0,0-11.89-9.39,33.31,33.31,0,0,0-31.85,1.6,32.45,32.45,0,0,0-11.84,13.71,47.22,47.22,0,0,0-4.21,20.53v45.39a47.33,47.33,0,0,0,4.21,20.48A32,32,0,0,0,114,251.94a32.34,32.34,0,0,0,17.74,4.84,34,34,0,0,0,14.17-3.07,33.32,33.32,0,0,0,11.83-9.11A36.23,36.23,0,0,0,165,230.27h23.77a64,64,0,0,1-10.92,25.82,55.61,55.61,0,0,1-20,17.24,56.56,56.56,0,0,1-26.06,6.09Q114.56,279.42,101.53,271.79Z"/><path class="cls-2" d="M238.45,273.39a39.79,39.79,0,0,1-16.67-17.58Q216,244.26,216,228V208.77q0-16.05,5.74-27.48a39.65,39.65,0,0,1,16.67-17.41q10.92-6,26.28-6t26.28,6a39.65,39.65,0,0,1,16.67,17.41q5.74,11.43,5.74,27.48v19.56q0,16.17-5.74,27.59A39.9,39.9,0,0,1,291,273.39q-10.92,6-26.28,6T238.45,273.39Zm45.11-23.67q6.66-7.62,6.66-21.39V208.77q0-13.77-6.66-21.28T264.73,180q-12.18,0-18.83,7.51t-6.65,21.28v19.56q0,13.77,6.65,21.39t18.83,7.63Q276.91,257.35,283.56,249.72Z"/><path class="cls-2" d="M346.42,159.62h23.21V277.71H346.42Zm71.67,46.53q0-12.51-6.48-19.34T393.4,180q-11.37,0-17.57,6t-6.2,17l-2.39-22.75a42.14,42.14,0,0,1,14.28-16.5,34.78,34.78,0,0,1,19.51-5.8q19.22,0,29.75,12.57T441.3,206v71.67H418.09Z"/><path class="cls-2" d="M467.47,159.62h53.24v20.93H467.47ZM486.3,270.37q-6.66-7.9-6.66-23.38V125.26h23.21v122a11.15,11.15,0,0,0,1.71,6.66,5.8,5.8,0,0,0,5,2.33h11.15v22.07H507.29Q493,278.28,486.3,270.37Z"/><path class="cls-2" d="M557.69,270.37q-10.82-9-10.81-27.47,0-17.52,9.9-26.28t29.92-8.76h33.56l1.59,18.65h-35q-9.1,0-13.59,4t-4.5,12.35q0,9,6,13.31t18.14,4.32q13.32,0,19.85-2.84t6.55-8.88l2.39,16.61a27,27,0,0,1-7.57,7.85,32.89,32.89,0,0,1-10.41,4.61,52.72,52.72,0,0,1-13.31,1.54Q568.5,279.42,557.69,270.37Zm61.55-67.52q0-11.61-6.2-18t-17.58-6.43a45.19,45.19,0,0,0-13.82,2.16,40.91,40.91,0,0,0-12,6l-17-11.6a44.22,44.22,0,0,1,17.69-12.57,63.82,63.82,0,0,1,24.41-4.5q14.67,0,25.14,5.18a35.94,35.94,0,0,1,15.93,15q5.46,9.84,5.46,23.72v75.88H619.24Z"/><path class="cls-2" d="M696.66,273.39a40.76,40.76,0,0,1-17.47-17.52q-6-11.49-6-27.76V208.65q0-16,6-27.42a40.65,40.65,0,0,1,17.47-17.35q11.43-6,27.59-6a65.71,65.71,0,0,1,17.35,2.22,51.62,51.62,0,0,1,14.62,6.43A39.85,39.85,0,0,1,767,176.8l-16.72,15a34.76,34.76,0,0,0-11.72-8.76,33.39,33.39,0,0,0-14-3.07q-13.43,0-20.82,7.51t-7.4,21.16v19.46q0,14,7.34,21.61t20.88,7.63a31.53,31.53,0,0,0,14.1-3.3,34.28,34.28,0,0,0,11.61-9.33L767,260.87a41.43,41.43,0,0,1-10.92,10.07,51.31,51.31,0,0,1-14.62,6.32,66.89,66.89,0,0,1-17.23,2.16Q708.1,279.42,696.66,273.39Z"/><path class="cls-2" d="M783.52,159.62h53.24v20.93H783.52Zm18.83,110.75q-6.66-7.9-6.66-23.38V125.26H818.9v122a11.15,11.15,0,0,0,1.71,6.66,5.81,5.81,0,0,0,5,2.33h11.15v22.07H823.34Q809,278.28,802.35,270.37Z"/><path class="cls-2" d="M1052.36,112.29h21.73V277.71h-22.64V153.82l1.14,7.28-40.74,93.63H995.7L955,163.37l1.14-9.55V277.71H933.47V112.29H955.2l48.58,109.22Z"/><path class="cls-2" d="M1133.13,273.27a41.05,41.05,0,0,1-17.69-18q-6.09-11.88-6.08-28.73V213.2q0-17.52,5.86-29.92a41.88,41.88,0,0,1,17-18.88q11.16-6.5,26.85-6.49,14.79,0,25.26,7.4t16,21.39q5.52,14,5.52,33.56V228h-79.64V209.33h57.57q-1-14.45-7.45-22.46t-17.24-8q-13.2,0-20.42,8.65T1131.43,212v15q0,14.67,7.73,22.53t22,7.85a36.53,36.53,0,0,0,14-2.85,40.4,40.4,0,0,0,12.41-8l15.24,15.24a64.11,64.11,0,0,1-19.68,13,56.1,56.1,0,0,1-22,4.61Q1144.74,279.42,1133.13,273.27Z"/></svg>
