<svg id="katman_1" data-name="katman 1" xmlns="http://www.w3.org/2000/svg" viewBox="0 0 1280 390"><defs><style>.cls-1{fill:#539bf5;}.cls-2{fill:#22272e;}</style></defs><rect class="cls-1" width="1280" height="390" rx="30.02"/><path class="cls-2" d="M103.24,257.18A51.81,51.81,0,0,1,83,235.56q-7.17-14-7.17-32.43V157.74q0-18.44,7.17-32.42a52.14,52.14,0,0,1,20.2-21.68q13-7.68,30.2-7.68a56.8,56.8,0,0,1,26.17,6.09,55.21,55.21,0,0,1,20,17.24,64.8,64.8,0,0,1,10.86,25.82H166.66a37,37,0,0,0-7.22-13.82,35.43,35.43,0,0,0-11.89-9.39,32,32,0,0,0-43.69,15.31,47.07,47.07,0,0,0-4.21,20.53v45.39a47.19,47.19,0,0,0,4.21,20.48,32,32,0,0,0,11.83,13.71,32.37,32.37,0,0,0,17.75,4.84,34.07,34.07,0,0,0,14.17-3.07A33.32,33.32,0,0,0,159.44,230a36,36,0,0,0,7.22-14.33h23.78a64.42,64.42,0,0,1-10.92,25.83,55.61,55.61,0,0,1-20,17.23,56.52,56.52,0,0,1-26.05,6.09Q116.26,264.8,103.24,257.18Z"/><path class="cls-2" d="M240.16,258.77a39.79,39.79,0,0,1-16.67-17.58q-5.75-11.55-5.75-27.82V194.15q0-16.05,5.75-27.48a39.57,39.57,0,0,1,16.67-17.4q10.92-6,26.28-6t26.28,6a39.63,39.63,0,0,1,16.67,17.4q5.73,11.43,5.74,27.48v19.57q0,16.16-5.74,27.58a40,40,0,0,1-16.67,17.47q-10.92,6-26.28,6T240.16,258.77Zm45.11-23.67q6.64-7.62,6.65-21.38V194.15q0-13.77-6.65-21.28t-18.83-7.51q-12.18,0-18.83,7.51T241,194.15v19.57q0,13.75,6.66,21.38t18.83,7.63Q278.61,242.73,285.27,235.1Z"/><path class="cls-2" d="M348.12,145h23.21V263.09H348.12Zm71.68,46.53q0-12.51-6.49-19.34t-18.2-6.83q-11.37,0-17.58,6t-6.2,17l-2.39-22.75a42.14,42.14,0,0,1,14.28-16.5,34.81,34.81,0,0,1,19.51-5.8q19.23,0,29.75,12.57T443,191.42v71.67H419.8Z"/><path class="cls-2" d="M469.17,145h53.25v20.93H469.17ZM488,255.75q-6.64-7.91-6.65-23.38V110.64h23.21v122a11.22,11.22,0,0,0,1.7,6.66,5.83,5.83,0,0,0,5,2.33h11.15v22.07H509Q494.67,263.66,488,255.75Z"/><path class="cls-2" d="M559.39,255.75q-10.8-9-10.8-27.47,0-17.52,9.89-26.28t29.93-8.76H622l1.59,18.66h-35q-9.1,0-13.6,4t-4.49,12.35q0,9,6,13.31t18.15,4.32q13.31,0,19.85-2.84t6.54-8.88l2.39,16.61a27.12,27.12,0,0,1-7.56,7.85,32.89,32.89,0,0,1-10.41,4.61,52.78,52.78,0,0,1-13.31,1.54Q570.2,264.8,559.39,255.75Zm61.55-67.52q0-11.59-6.2-18t-17.57-6.43a45.2,45.2,0,0,0-13.83,2.16,41,41,0,0,0-12,6l-17-11.6a44.15,44.15,0,0,1,17.69-12.57,63.76,63.76,0,0,1,24.4-4.5q14.68,0,25.15,5.18a36,36,0,0,1,15.92,15q5.46,9.84,5.46,23.72v75.88H620.94Z"/><path class="cls-2" d="M698.36,258.77a40.8,40.8,0,0,1-17.46-17.52q-6-11.49-6-27.76V194q0-16,6-27.41a40.57,40.57,0,0,1,17.46-17.35q11.45-6,27.59-6a65.6,65.6,0,0,1,17.35,2.22,51.5,51.5,0,0,1,14.62,6.43,39.75,39.75,0,0,1,10.81,10.24L752,177.2a34.6,34.6,0,0,0-11.72-8.76,33.26,33.26,0,0,0-14-3.08q-13.42,0-20.82,7.51T698.08,194v19.46q0,14,7.34,21.61t20.87,7.63a31.6,31.6,0,0,0,14.11-3.3A34.38,34.38,0,0,0,752,230.1l16.72,16.15a41.43,41.43,0,0,1-10.92,10.07,51.43,51.43,0,0,1-14.62,6.32A67,67,0,0,1,726,264.8Q709.79,264.8,698.36,258.77Z"/><path class="cls-2" d="M785.23,145h53.24v20.93H785.23Zm18.83,110.75q-6.66-7.91-6.66-23.38V110.64h23.21v122a11.15,11.15,0,0,0,1.71,6.66,5.8,5.8,0,0,0,5,2.33h11.15v22.07H825.05Q810.71,263.66,804.06,255.75Z"/><path class="cls-2" d="M1054.06,97.67h21.73V263.09h-22.64V139.2l1.14,7.28-40.73,93.63H997.41l-40.73-91.36,1.14-9.55V263.09H935.17V97.67h21.74l48.57,109.22Z"/><path class="cls-2" d="M1134.84,258.65a41,41,0,0,1-17.69-18q-6.09-11.88-6.09-28.72V198.58q0-17.51,5.86-29.92a42,42,0,0,1,17-18.88q11.14-6.5,26.85-6.49,14.79,0,25.26,7.4t16,21.39q5.52,14,5.52,33.56v7.73H1127.9V194.72h57.57q-1-14.46-7.45-22.47t-17.24-8q-13.2,0-20.42,8.64t-7.23,24.46v15q0,14.67,7.74,22.53t22,7.85a36.57,36.57,0,0,0,14-2.85,40.24,40.24,0,0,0,12.4-8l15.25,15.24a64.11,64.11,0,0,1-19.68,13,56.18,56.18,0,0,1-22,4.61Q1146.45,264.8,1134.84,258.65Z"/></svg>
