<svg id="katman_1" data-name="katman 1" xmlns="http://www.w3.org/2000/svg" viewBox="0 0 1280 390"><defs><style>.cls-1{fill:#fff;}.cls-2{fill:#6295cf;}</style></defs><rect class="cls-1" width="1280" height="390" rx="30.02"/><path class="cls-2" d="M247.46,114.25h22.41V274.1H247.46Zm9.78,71h54.49A20.94,20.94,0,0,0,323,182.15a20.22,20.22,0,0,0,7.64-8.74,32.85,32.85,0,0,0,0-26,20.39,20.39,0,0,0-7.58-8.73,20.91,20.91,0,0,0-11.37-3.08H257.24V114.25h53.61q13.84,0,24.33,5.71a40,40,0,0,1,16.26,16.21q5.78,10.49,5.77,24.22t-5.82,24.23a40.34,40.34,0,0,1-16.32,16.2,49.82,49.82,0,0,1-24.22,5.72H257.24Zm43.5,16.37,22.3-5.05,40.87,77.56H337.33Z"/><path class="cls-2" d="M407.2,269.82a39.62,39.62,0,0,1-17.08-17.42q-5.88-11.47-5.88-27.74V211.81q0-16.92,5.66-28.89a40.39,40.39,0,0,1,16.42-18.24q10.77-6.27,25.93-6.26,14.28,0,24.39,7.14t15.43,20.65q5.34,13.51,5.33,32.41v7.47H400.5v-18h55.59q-1-13.95-7.2-21.69t-16.64-7.75q-12.75,0-19.72,8.35t-7,23.62v14.5q0,14.18,7.47,21.75t21.21,7.59a35.39,35.39,0,0,0,13.51-2.75,38.94,38.94,0,0,0,12-7.69l14.73,14.72a62.16,62.16,0,0,1-19,12.58,54.08,54.08,0,0,1-21.2,4.45Q418.41,275.75,407.2,269.82Z"/><path class="cls-2" d="M529.53,273.77A68.69,68.69,0,0,1,513,267.84,64.67,64.67,0,0,1,498.83,258l13.29-16.37a74.82,74.82,0,0,0,18.35,10.55,49.84,49.84,0,0,0,18,3.51q13.29,0,19.94-4.12t6.65-12.36q0-5.49-3.62-8.23a20.63,20.63,0,0,0-9-3.69q-5.38-.93-15.16-1.7c-.59,0-1.21,0-1.87,0s-1.28-.09-1.87-.17a6.49,6.49,0,0,1-.88,0,6.51,6.51,0,0,0-.88-.06A87.84,87.84,0,0,1,523,222a25.46,25.46,0,0,1-12.8-8.84q-5.11-6.48-5.11-18.57t4.94-20.1a30,30,0,0,1,14.72-12q9.78-4,24.5-4a84.7,84.7,0,0,1,17,1.64,75.1,75.1,0,0,1,29.6,13.08l-13.51,16.37a75.18,75.18,0,0,0-16.86-8.24,51.43,51.43,0,0,0-16.21-2.75q-11.43,0-17.14,3.9t-5.71,11.7a7.93,7.93,0,0,0,3.24,6.92,18.88,18.88,0,0,0,8.19,3.08q4.93.76,14.06,1.32a8.74,8.74,0,0,0,1.37.11,9.69,9.69,0,0,1,1.49.11h.66a1.89,1.89,0,0,1,.65.11A97.11,97.11,0,0,1,576.44,209a27.47,27.47,0,0,1,14.12,9.56q5.72,7.14,5.71,20.65,0,12.32-5.27,20.38t-15.87,12.14q-10.61,4.06-26.65,4.07A86.62,86.62,0,0,1,529.53,273.77Z"/><path class="cls-2" d="M647.25,229.39q0,12,6.1,18.51t17.19,6.54q11,0,17-5.83t6-16.59l1.54,23.84A32.85,32.85,0,0,1,683.73,270q-7.92,5.71-19.45,5.71-18.9,0-29.17-12.14t-10.27-34.22V160.06h22.41Zm46.36-69.33h22.31v114H693.61Z"/><path class="cls-2" d="M750,160.06h22.42v114H750ZM818.09,205q0-12.09-5.93-18.68t-16.81-6.59q-11,0-17,5.82t-6,16.37l-2.31-22A40.55,40.55,0,0,1,783.87,164a33.48,33.48,0,0,1,18.84-5.6q12,0,20.43,5.43a34.21,34.21,0,0,1,12.91,15.88q4.46,10.44,4.45,25.16V274.1H818.09Zm68.11,0q0-12.09-6.26-18.68t-17.58-6.59q-10.44,0-16.15,6.37t-5.71,18l-4.5-22a43.76,43.76,0,0,1,14.22-17.53,33.27,33.27,0,0,1,19.5-6.2q12.31,0,21,5.43a34.22,34.22,0,0,1,13.3,15.88q4.55,10.44,4.56,25.16V274.1H886.2Z"/><path class="cls-2" d="M962.34,269.82a39.62,39.62,0,0,1-17.08-17.42q-5.88-11.47-5.88-27.74V211.81q0-16.92,5.66-28.89a40.39,40.39,0,0,1,16.42-18.24q10.77-6.27,25.93-6.26,14.28,0,24.39,7.14t15.43,20.65q5.32,13.51,5.33,32.41v7.47h-76.9v-18h55.59q-1-13.95-7.2-21.69t-16.64-7.75q-12.75,0-19.72,8.35t-7,23.62v14.5q0,14.18,7.47,21.75t21.2,7.59a35.4,35.4,0,0,0,13.52-2.75,38.94,38.94,0,0,0,12-7.69l14.72,14.72a62.12,62.12,0,0,1-19,12.58,54.09,54.09,0,0,1-21.21,4.45Q973.55,275.75,962.34,269.82Z"/></svg>
